<svg xmlns="http://www.w3.org/2000/svg" viewBox="0 -0.5 16 16" shape-rendering="crispEdges">
    <metadata>Made with Pixels to Svg https://codepen.io/shshaw/pen/XbxvNj</metadata>
    <path stroke="#134bff" d="M0 0h16M0 1h16M0 2h2M12 2h1M14 2h2M0 3h16M0 4h2M4 4h1M14 4h2M0 5h2M4 5h1M14 5h2M0 6h16M0 7h2M4 7h1M14 7h2M0 8h2M4 8h1M14 8h2M0 9h16M0 10h2M4 10h1M14 10h2M0 11h2M4 11h1M14 11h2M0 12h16M0 13h2M7 13h2M14 13h2M0 14h16M0 15h16" />
    <path stroke="#ffffff" d="M2 2h10M13 2h1M2 4h2M5 4h9M2 5h2M5 5h9M2 7h2M5 7h9M2 8h2M5 8h9M2 10h2M5 10h9M2 11h2M5 11h9M2 13h5M9 13h5" />
</svg>